# This file uses centimeters as units for non-parametric coordinates.

mtllib ÉÏÖĞºó.mtl
g default
v -10.000000 1.000000 1.000000
v -8.782240 1.000000 1.000000
v -8.767309 1.049509 1.000000
v -5.097171 1.345479 1.000000
v -5.204235 1.000000 1.000000
v -4.000000 1.000000 1.000000
v -4.000000 1.475841 1.000000
v -10.000000 1.000000 -1.000000
v -8.767309 1.049509 -1.000000
v -8.782240 1.000000 -1.000000
v -4.000000 1.000000 -1.000000
v -4.000000 1.475841 -1.000000
v -5.097171 1.345479 -1.000000
v -5.204235 1.000000 -1.000000
v -6.315367 1.236220 1.000000
v -6.379062 1.000000 1.000000
v -6.315367 1.236220 -1.000000
v -6.379062 1.000000 -1.000000
v -7.538939 1.135008 1.000000
v -7.618174 1.000000 1.000000
v -7.538939 1.135008 -1.000000
v -7.618174 1.000000 -1.000000
vt 0.395833 0.100000
vt 0.421203 0.100000
vt 0.421514 0.104951
vt 0.497976 0.134548
vt 0.495745 0.100000
vt 0.520833 0.100012
vt 0.520833 0.148722
vt 0.395835 0.099998
vt 0.421515 0.104937
vt 0.421203 0.100028
vt 0.333333 0.100000
vt 0.166667 0.100000
vt 0.166667 0.147584
vt 0.333333 0.147584
vt 0.001986 0.551742
vt 0.020118 0.637009
vt 0.225850 0.552468
vt 0.202887 0.451094
vt 0.389786 0.090886
vt 0.261501 0.534972
vt 0.213229 0.612865
vt 0.197232 0.439042
vt 0.472597 0.123622
vt 0.471270 0.100000
vt 0.520833 0.099928
vt 0.495745 0.099940
vt 0.497976 0.134869
vt 0.520834 0.148215
vt 0.037008 0.730362
vt 0.246377 0.662314
vt 0.301197 0.639960
vt 0.273970 0.683426
vt 0.447105 0.113501
vt 0.445455 0.100000
vt 0.471269 0.099992
vt 0.472597 0.123613
vt 0.055265 0.825870
vt 0.268807 0.768329
vt 0.341904 0.750656
vt 0.327669 0.774073
vt 0.445455 0.100012
vt 0.447106 0.113488
vt 0.076291 0.923625
vt 0.293864 0.873757
vt 0.381724 0.853346
vt 0.374003 0.865561
vt 0.092116 1.025529
vt 0.310888 0.978991
vt 0.422155 0.957515
vt 0.418595 0.965376
vn 0.000000 0.000000 1.000000
vn 0.000000 0.000000 1.000000
vn 0.000000 0.000000 1.000000
vn 0.000000 0.000000 1.000000
vn 0.000000 0.000000 1.000000
vn 0.000000 0.000000 1.000000
vn 0.000000 0.000000 1.000000
vn 0.000000 0.000000 -1.000000
vn 0.000000 0.000000 -1.000000
vn 0.000000 0.000000 -1.000000
vn 1.000000 0.000000 0.000000
vn 1.000000 0.000000 0.000000
vn 1.000000 0.000000 0.000000
vn 1.000000 0.000000 0.000000
vn -0.117987 0.993015 0.000000
vn -0.117987 0.993015 0.000000
vn -0.117987 0.993015 0.000000
vn -0.117987 0.993015 0.000000
vn 0.000000 -1.000000 0.000000
vn 0.000000 -1.000000 0.000000
vn 0.000000 -1.000000 0.000000
vn 0.000000 -1.000000 0.000000
vn 0.000000 0.000000 1.000000
vn 0.000000 0.000000 1.000000
vn 0.000000 0.000000 1.000000
vn 0.000000 0.000000 1.000000
vn -0.000001 0.000000 -1.000000
vn -0.000001 0.000000 -1.000000
vn -0.000001 0.000000 -1.000000
vn -0.000001 0.000000 -1.000000
vn -0.089331 0.996002 0.000000
vn -0.089331 0.996002 0.000000
vn -0.089331 0.996002 0.000000
vn -0.089331 0.996002 0.000000
vn 0.000000 -1.000000 0.000000
vn 0.000000 -1.000000 0.000000
vn 0.000000 -1.000000 0.000000
vn 0.000000 -1.000000 0.000000
vn -0.000000 0.000000 1.000000
vn -0.000000 0.000000 1.000000
vn -0.000000 0.000000 1.000000
vn -0.000000 0.000000 1.000000
vn 0.000000 0.000000 -1.000000
vn 0.000000 0.000000 -1.000000
vn 0.000000 0.000000 -1.000000
vn 0.000000 0.000000 -1.000000
vn -0.082437 0.996596 0.000000
vn -0.082437 0.996596 0.000000
vn -0.082437 0.996596 0.000000
vn -0.082437 0.996596 0.000000
vn 0.000000 -1.000000 0.000000
vn 0.000000 -1.000000 0.000000
vn 0.000000 -1.000000 0.000000
vn 0.000000 -1.000000 0.000000
vn 0.000000 0.000000 1.000000
vn 0.000000 0.000000 1.000000
vn 0.000000 0.000000 1.000000
vn 0.000000 0.000000 1.000000
vn 0.000000 0.000000 -1.000000
vn 0.000000 0.000000 -1.000000
vn 0.000000 0.000000 -1.000000
vn 0.000000 0.000000 -1.000000
vn -0.069436 0.997586 0.000000
vn -0.069436 0.997586 0.000000
vn -0.069436 0.997586 0.000000
vn -0.069436 0.997586 0.000000
vn 0.000000 -1.000000 0.000000
vn 0.000000 -1.000000 0.000000
vn 0.000000 -1.000000 0.000000
vn 0.000000 -1.000000 0.000000
vn 0.000000 0.000000 -1.000000
vn 0.000000 0.000000 -1.000000
vn 0.000000 0.000000 -1.000000
vn 0.000000 0.000000 -1.000000
vn -0.040131 0.999195 0.000000
vn -0.040131 0.999195 0.000000
vn -0.040131 0.999195 0.000000
vn -0.040131 0.999195 0.000000
vn 0.000000 -1.000000 0.000000
vn 0.000000 -1.000000 0.000000
vn 0.000000 -1.000000 0.000000
vn 0.000000 -1.000000 0.000000
s off
g polySurface28
usemtl blinn2SG
f 1/1/1 2/2/2 3/3/3
f 4/4/4 5/5/5 6/6/6 7/7/7
f 8/8/8 9/9/9 10/10/10
f 6/11/11 11/12/12 12/13/13 7/14/14
f 12/15/15 13/16/16 4/17/17 7/18/18
f 6/19/19 5/20/20 14/21/21 11/22/22
f 15/23/23 16/24/24 5/5/25 4/4/26
f 11/25/27 14/26/28 13/27/29 12/28/30
f 13/16/31 17/29/32 15/30/33 4/17/34
f 16/31/35 18/32/36 14/21/37 5/20/38
f 19/33/39 20/34/40 16/24/41 15/23/42
f 14/26/43 18/35/44 17/36/45 13/27/46
f 17/29/47 21/37/48 19/38/49 15/30/50
f 20/39/51 22/40/52 18/32/53 16/31/54
f 3/3/55 2/2/56 20/34/57 19/33/58
f 18/35/59 22/41/60 21/42/61 17/36/62
f 21/37/63 9/43/64 3/44/65 19/38/66
f 2/45/67 10/46/68 22/40/69 20/39/70
f 22/41/71 10/10/72 9/9/73 21/42/74
f 3/44/75 9/43/76 8/47/77 1/48/78
f 1/49/79 8/50/80 10/46/81 2/45/82
